<svg width="23" height="23" xmlns="http://www.w3.org/2000/svg" xmlns:xlink="http://www.w3.org/1999/xlink" xml:space="preserve" overflow="hidden"><g transform="translate(-184 -389)"><path d="M192.523 391.526C192.727 391.185 192.616 390.744 192.276 390.54 191.935 390.336 191.494 390.446 191.29 390.787L187.187 397.625 184.719 397.625C184.322 397.625 184 397.947 184 398.344L184 399.781C184 400.178 184.322 400.5 184.719 400.5L185.614 400.5 188.265 409.78C188.398 410.244 188.822 410.564 189.304 410.562L201.699 410.562C202.18 410.563 202.604 410.244 202.736 409.78L205.386 400.5 206.281 400.5C206.678 400.5 207 400.178 207 399.781L207 398.344C207 397.947 206.678 397.625 206.281 397.625L203.813 397.625 199.712 390.787C199.508 390.446 199.066 390.336 198.726 390.54 198.385 390.744 198.274 391.185 198.479 391.526L202.137 397.625 188.863 397.625ZM189.75 403.375C189.75 402.581 190.394 401.938 191.188 401.938 191.981 401.938 192.625 402.581 192.625 403.375L192.625 406.25C192.625 407.044 191.981 407.688 191.188 407.688 190.394 407.688 189.75 407.044 189.75 406.25ZM194.062 403.375C194.062 402.581 194.706 401.938 195.5 401.938 196.294 401.938 196.938 402.581 196.938 403.375L196.938 406.25C196.938 407.044 196.294 407.688 195.5 407.688 194.706 407.688 194.062 407.044 194.062 406.25ZM199.812 401.938C200.606 401.938 201.25 402.581 201.25 403.375L201.25 406.25C201.25 407.044 200.606 407.688 199.812 407.688 199.019 407.688 198.375 407.044 198.375 406.25L198.375 403.375C198.375 402.581 199.019 401.938 199.812 401.938"/></g></svg>