<svg width="20" height="19" xmlns="http://www.w3.org/2000/svg" xmlns:xlink="http://www.w3.org/1999/xlink" xml:space="preserve" overflow="hidden"><g transform="translate(-48 -191)"><path d="M0 4.75C-5.27356e-16 3.43832 1.06332 2.375 2.375 2.375L16.625 2.375C17.9367 2.375 19 3.43832 19 4.75L19 14.25C19 15.5617 17.9367 16.625 16.625 16.625L2.375 16.625C1.06332 16.625 0 15.5617 0 14.25ZM2.375 3.5625C1.71917 3.5625 1.1875 4.09417 1.1875 4.75L1.1875 5.00769 9.5 9.99519 17.8125 5.00769 17.8125 4.75C17.8125 4.09417 17.2809 3.5625 16.625 3.5625ZM17.8125 6.39231 12.2218 9.747 17.8125 13.1872ZM17.7721 14.5576 11.0746 10.4358 9.5 11.3798 7.92537 10.4358 1.22787 14.5564C1.36662 15.0759 1.83722 15.4374 2.375 15.4375L16.625 15.4375C17.1625 15.4376 17.6329 15.0766 17.7721 14.5576M1.1875 13.1872 6.77825 9.747 1.1875 6.39231Z" transform="matrix(1.05263 0 0 1 48 191)"/></g></svg>