<svg width="20" height="20" xmlns="http://www.w3.org/2000/svg" xmlns:xlink="http://www.w3.org/1999/xlink" xml:space="preserve" overflow="hidden"><g transform="translate(-48 -249)"><path d="M58 249C52.475 249 48 253.475 48 259 48 263.425 50.8625 267.163 54.8375 268.487 55.3375 268.575 55.525 268.275 55.525 268.013 55.525 267.775 55.5125 266.987 55.5125 266.15 53 266.612 52.35 265.538 52.15 264.975 52.0375 264.688 51.55 263.8 51.125 263.562 50.775 263.375 50.275 262.913 51.1125 262.9 51.9 262.888 52.4625 263.625 52.65 263.925 53.55 265.438 54.9875 265.013 55.5625 264.75 55.65 264.1 55.9125 263.663 56.2 263.413 53.975 263.163 51.65 262.3 51.65 258.475 51.65 257.388 52.0375 256.487 52.675 255.788 52.575 255.538 52.225 254.512 52.775 253.137 52.775 253.137 53.6125 252.875 55.525 254.163 56.325 253.938 57.175 253.825 58.025 253.825 58.875 253.825 59.725 253.938 60.525 254.163 62.4375 252.863 63.275 253.137 63.275 253.137 63.825 254.512 63.475 255.538 63.375 255.788 64.0125 256.487 64.4 257.375 64.4 258.475 64.4 262.312 62.0625 263.163 59.8375 263.413 60.2 263.725 60.5125 264.325 60.5125 265.263 60.5125 266.6 60.5 267.675 60.5 268.013 60.5 268.275 60.6875 268.587 61.1875 268.487 65.2588 267.114 68 263.297 68 259 68 253.475 63.525 249 58 249"/></g></svg>