<svg width="19" height="19" xmlns="http://www.w3.org/2000/svg" xmlns:xlink="http://www.w3.org/1999/xlink" xml:space="preserve" overflow="hidden"><g transform="translate(-48 -219)"><path d="M61.0625 220.188C61.7184 220.188 62.25 220.719 62.25 221.375L62.25 235.625C62.25 236.281 61.7184 236.812 61.0625 236.812L53.9375 236.812C53.2817 236.812 52.75 236.281 52.75 235.625L52.75 221.375C52.75 220.719 53.2817 220.188 53.9375 220.188ZM53.9375 219C52.6258 219 51.5625 220.063 51.5625 221.375L51.5625 235.625C51.5625 236.937 52.6258 238 53.9375 238L61.0625 238C62.3742 238 63.4375 236.937 63.4375 235.625L63.4375 221.375C63.4375 220.063 62.3742 219 61.0625 219Z"/><path d="M57.5 235.625C58.1558 235.625 58.6875 235.093 58.6875 234.438 58.6875 233.782 58.1558 233.25 57.5 233.25 56.8442 233.25 56.3125 233.782 56.3125 234.438 56.3125 235.093 56.8442 235.625 57.5 235.625"/></g></svg>