<svg width="21" height="20" xmlns="http://www.w3.org/2000/svg" xmlns:xlink="http://www.w3.org/1999/xlink" xml:space="preserve" overflow="hidden"><g transform="translate(-48 -277)"><path d="M10 20C10 20 17.5 12.8925 17.5 7.5 17.5 3.35786 14.1421 0 10 0 5.85786-1.11022e-15 2.5 3.35786 2.5 7.5 2.5 12.8925 10 20 10 20M10 11.25C7.92894 11.25 6.25 9.57106 6.25 7.5 6.25 5.42894 7.92894 3.75 10 3.75 12.0711 3.75 13.75 5.42894 13.75 7.5 13.75 9.57106 12.0711 11.25 10 11.25" transform="matrix(1.05 0 0 1 48 277)"/></g></svg>